<svg xmlns="http://www.w3.org/2000/svg" width="18" height="18.248" viewBox="0 0 18 18.248">
    <path fill="#e6e6e6" d="M76.931 111.689a9.357 9.357 0 0 0-8.944 6.416h1.325a7.647 7.647 0 0 1 .493-1.061h2.551a10.744 10.744 0 0 0-.278 1.061h1.292a9.973 9.973 0 0 1 .326-1.061h2.462v1.056H77.4v-1.061h2.659a9.3 9.3 0 0 1 .365 1.061h1.292a10.437 10.437 0 0 0-.312-1.061h2.648a7.642 7.642 0 0 1 .493 1.061h1.323a9.354 9.354 0 0 0-8.937-6.411zm1.882 1.468a8.126 8.126 0 0 1 4.375 2.64h-2.314a8.751 8.751 0 0 0-2.061-2.64zm-4.13.092a8.284 8.284 0 0 0-1.838 2.548h-2.171a8.117 8.117 0 0 1 4.01-2.549zm2.721.4a7.19 7.19 0 0 1 2.013 2.147H77.4zm-1.248.008v2.143h-1.88a6.6 6.6 0 0 1 1.881-2.143zm-7.8 5.653a.533.533 0 0 0-.312.086.256.256 0 0 0-.125.214.823.823 0 0 0 .058.262l.663 1.9c.02.057.043.121.07.189a.651.651 0 0 0 .106.181.435.435 0 0 0 .175.123.739.739 0 0 0 .278.045.637.637 0 0 0 .331-.075.454.454 0 0 0 .175-.164 2.99 2.99 0 0 0 .123-.281l.593-1.671.59 1.679c.049.124.088.216.12.276a.442.442 0 0 0 .173.164.655.655 0 0 0 .334.072.645.645 0 0 0 .343-.075.449.449 0 0 0 .17-.173 2.761 2.761 0 0 0 .114-.29l.663-1.9a.915.915 0 0 0 .061-.262.254.254 0 0 0-.128-.214.536.536 0 0 0-.309-.086.49.49 0 0 0-.281.067.381.381 0 0 0-.134.148 1.554 1.554 0 0 0-.075.209l-.468 1.621-.524-1.518a2.842 2.842 0 0 0-.12-.278.478.478 0 0 0-.175-.17.666.666 0 0 0-.354-.078.7.7 0 0 0-.354.075.483.483 0 0 0-.187.175 2.019 2.019 0 0 0-.12.276l-.521 1.518-.471-1.632a.926.926 0 0 0-.142-.3.412.412 0 0 0-.336-.113zm6.413 0a.533.533 0 0 0-.312.086.256.256 0 0 0-.125.214.844.844 0 0 0 .061.262l.663 1.9c.02.057.043.121.07.189a.644.644 0 0 0 .1.181.436.436 0 0 0 .175.123.739.739 0 0 0 .278.045.648.648 0 0 0 .334-.075.445.445 0 0 0 .173-.164 2.986 2.986 0 0 0 .123-.281l.593-1.671.59 1.679c.049.124.088.216.12.276a.442.442 0 0 0 .173.164.655.655 0 0 0 .334.072.645.645 0 0 0 .343-.075.449.449 0 0 0 .17-.173 2.761 2.761 0 0 0 .114-.29l.663-1.9a.915.915 0 0 0 .061-.262.254.254 0 0 0-.128-.214.536.536 0 0 0-.309-.086.49.49 0 0 0-.281.067.381.381 0 0 0-.134.148 1.556 1.556 0 0 0-.075.209l-.468 1.621-.524-1.518a2.843 2.843 0 0 0-.12-.278.468.468 0 0 0-.173-.17.666.666 0 0 0-.354-.078.713.713 0 0 0-.356.075.484.484 0 0 0-.187.175 2.021 2.021 0 0 0-.12.276l-.521 1.518-.471-1.632a.926.926 0 0 0-.139-.3.418.418 0 0 0-.337-.113zm6.413 0a.533.533 0 0 0-.312.086.256.256 0 0 0-.125.214.844.844 0 0 0 .061.262l.663 1.9c.02.057.043.121.07.189a.644.644 0 0 0 .1.181.435.435 0 0 0 .175.123.739.739 0 0 0 .278.045.648.648 0 0 0 .334-.075.445.445 0 0 0 .173-.164 2.854 2.854 0 0 0 .125-.281l.59-1.671.59 1.679c.049.124.088.216.12.276a.442.442 0 0 0 .173.164.655.655 0 0 0 .334.072.645.645 0 0 0 .343-.075.449.449 0 0 0 .17-.173 2.757 2.757 0 0 0 .114-.29l.663-1.9a.915.915 0 0 0 .061-.262.251.251 0 0 0-.125-.214.546.546 0 0 0-.312-.086.49.49 0 0 0-.281.067.381.381 0 0 0-.134.148 1.558 1.558 0 0 0-.075.209l-.465 1.621-.526-1.518a2.838 2.838 0 0 0-.12-.278.468.468 0 0 0-.173-.17.666.666 0 0 0-.354-.078.713.713 0 0 0-.356.075.483.483 0 0 0-.187.175 2.02 2.02 0 0 0-.12.276l-.521 1.518-.468-1.632a.926.926 0 0 0-.142-.3.418.418 0 0 0-.337-.113zm-13.242 4.046a9.434 9.434 0 0 0 17.983 0h-1.317a7.683 7.683 0 0 1-.451 1.039h-2.674a10.612 10.612 0 0 0 .287-1.039H80.5a8.721 8.721 0 0 1-.326 1.039H77.4v-1.039h-1.243v1.044h-2.525a10.55 10.55 0 0 1-.3-1.039h-1.277c.072.352.159.7.259 1.039h-2.606a7.7 7.7 0 0 1-.454-1.039zm2.587 2.286h2.236a7.921 7.921 0 0 0 1.841 2.715 8.1 8.1 0 0 1-4.077-2.714zm3.626 0h2v2.331a5.943 5.943 0 0 1-2.001-2.33zm3.252 0h2.144a6.832 6.832 0 0 1-2.144 2.272zm3.578 0h2.353a8.114 8.114 0 0 1-4.584 2.843 8.4 8.4 0 0 0 2.231-2.843z" transform="translate(-67.923 -111.689)"/>
</svg>
