<svg xmlns="http://www.w3.org/2000/svg" width="30" height="30" viewBox="0 0 30 30">
    <rect width="30" height="30" fill="#242424" rx="5"/>
    <path fill="#e7416a" d="M16.738 9.959a3.471 3.471 0 0 0 .977-2.389 3.961 3.961 0 0 0-4.16-3.714h-5.2v13H14.6a3.961 3.961 0 0 0 4.16-3.714 3.656 3.656 0 0 0-2.022-3.183zm-5.263-4.246h1.649a1.765 1.765 0 0 1 1.65 1.857 1.765 1.765 0 0 1-1.649 1.857h-1.65zM14.059 15h-2.584v-3.715h2.584a1.862 1.862 0 0 1 0 3.714z" transform="translate(1.498 4.144)"/>
</svg>
