<svg xmlns="http://www.w3.org/2000/svg" width="30" height="30" viewBox="0 0 30 30">
    <defs>
        <style>
            .cls-3{stroke:none}
        </style>
    </defs>
    <g id="Group_3998" transform="translate(-624 -1006)">
        <g id="Path_77" fill="#3d3d3d" stroke-linecap="round" stroke-linejoin="round">
            <path d="M21.681 19.296h-3.275l-.119-.332-.977-2.731H11.9l-.978 2.731-.118.332H7.528l.254-.676 5.381-14.296.122-.324h2.649l.122.324 5.371 14.296.254.676zm-8.688-6.106h3.234L14.61 8.702l-1.617 4.488z" class="cls-3" transform="translate(624.395 1009.352)"/>
            <path fill="#e6e6e6" d="M13.631 4.5L8.25 18.796h2.201l1.096-3.063h6.115l1.096 3.063h2.201L15.588 4.5h-1.957m3.307 9.19h-4.657l2.329-6.464 2.328 6.464M13.631 3.5h1.957c.417 0 .79.258.936.648l5.371 14.296c.116.307.073.652-.114.921-.186.27-.494.431-.822.431h-2.201c-.422 0-.8-.265-.942-.663l-.858-2.4h-4.706l-.859 2.4c-.142.398-.52.663-.942.663H8.25c-.328 0-.635-.161-.822-.43-.187-.27-.23-.615-.114-.922l5.381-14.296c.147-.39.52-.648.936-.648zm1.884 9.19l-.905-2.513-.906 2.513h1.811z" transform="translate(624.395 1009.352)"/>
        </g>
    </g>
</svg>
