<svg xmlns="http://www.w3.org/2000/svg" width="30" height="30" viewBox="0 0 30 30">
    <rect width="30" height="30" fill="#242424" rx="5"/>
    <g>
        <path fill="#e7416a" d="M4.96.112a5.3 5.3 0 0 1-2.1-.4A3.454 3.454 0 0 1 1.376-1.44a3.033 3.033 0 0 1-.56-1.776h2.4A1.552 1.552 0 0 0 3.7-2.128a1.729 1.729 0 0 0 1.208.4A1.858 1.858 0 0 0 6.144-2.1a1.223 1.223 0 0 0 .448-.984 1.137 1.137 0 0 0-.3-.816 2.13 2.13 0 0 0-.76-.5 12.577 12.577 0 0 0-1.256-.408 13.452 13.452 0 0 1-1.776-.64 3.1 3.1 0 0 1-1.168-.944A2.69 2.69 0 0 1 .848-8.08a3.018 3.018 0 0 1 .5-1.728 3.155 3.155 0 0 1 1.392-1.128 5.064 5.064 0 0 1 2.048-.392 4.443 4.443 0 0 1 2.808.84 3.114 3.114 0 0 1 1.188 2.344H6.32a1.28 1.28 0 0 0-.488-.956 1.839 1.839 0 0 0-1.208-.376 1.555 1.555 0 0 0-1.048.336 1.215 1.215 0 0 0-.392.976 1.009 1.009 0 0 0 .3.744 2.257 2.257 0 0 0 .736.48q.44.184 1.24.424a13.027 13.027 0 0 1 1.776.64 3.189 3.189 0 0 1 1.184.96 2.667 2.667 0 0 1 .5 1.68 3.16 3.16 0 0 1-.464 1.664A3.276 3.276 0 0 1 7.088-.344 4.639 4.639 0 0 1 4.96.112z" transform="translate(9.5 4) translate(0 17)"/>
        <path fill="none" stroke="#e7416a" stroke-width="1.5px" d="M0 0L14 0" transform="translate(9.5 4) translate(-1.5 11.344)"/>
    </g>
</svg>
