<svg id="Group_4001" data-name="Group 4001" xmlns="http://www.w3.org/2000/svg" width="35" height="35" viewBox="0 0 35 35">
  <rect id="Rectangle_267" data-name="Rectangle 267" width="35" height="35" rx="17.5" fill="#e7416a"/>
  <path id="Icon_ionic-md-settings" data-name="Icon ionic-md-settings" d="M19.808,13.649a5.841,5.841,0,0,0,.048-.934c0-.327-.048-.607-.048-.934l2.006-1.541a.429.429,0,0,0,.1-.607L20,6.41a.465.465,0,0,0-.573-.187l-2.388.934a6.952,6.952,0,0,0-1.624-.934l-.334-2.475a.512.512,0,0,0-.478-.374H10.78a.512.512,0,0,0-.478.374L9.921,6.223A8.088,8.088,0,0,0,8.3,7.158L5.908,6.223a.447.447,0,0,0-.573.187L3.424,9.633a.564.564,0,0,0,.1.607l2.054,1.541c0,.327-.048.607-.048.934s.048.607.048.934L3.568,15.19a.429.429,0,0,0-.1.607l1.911,3.222a.465.465,0,0,0,.573.187l2.388-.934a6.951,6.951,0,0,0,1.624.934l.382,2.475a.463.463,0,0,0,.478.374h3.821a.512.512,0,0,0,.478-.374l.382-2.475a8.083,8.083,0,0,0,1.624-.934l2.388.934a.447.447,0,0,0,.573-.187L22,15.8a.563.563,0,0,0-.1-.607Zm-7.117,2.335a3.27,3.27,0,1,1,3.344-3.269A3.286,3.286,0,0,1,12.691,15.984Z" transform="translate(4.718 5.017)" fill="#e6e6e6"/>
</svg>
