<svg xmlns="http://www.w3.org/2000/svg" width="9.489" height="13" viewBox="0 0 9.489 13">
    <defs>
        <linearGradient id="1tmlyxk59a" x1="-.317" x2="1.276" y1=".946" y2=".354" gradientUnits="objectBoundingBox">
            <stop offset="0" stop-color="#e72870"/>
            <stop offset="1" stop-color="#e76161"/>
        </linearGradient>
    </defs>
    <path fill="url(#1tmlyxk59a)" d="M4.745 0l-.538.538C4.033.712 0 4.792 0 8.255a4.745 4.745 0 0 0 9.489 0c0-3.447-4.033-7.543-4.207-7.717L4.745 0zM2.372 7.465a.783.783 0 0 1 .791.791 1.586 1.586 0 0 0 1.582 1.581.791.791 0 1 1 0 1.582 3.172 3.172 0 0 1-3.163-3.164.783.783 0 0 1 .791-.791z" transform="translate(0 0)"/>
</svg>
