<svg xmlns="http://www.w3.org/2000/svg" id="Icon_ionic-logo-buffer" width="18.817" height="18.809" viewBox="0 0 18.817 18.809">
    <defs>
        <style>
            .cls-1{fill:#e6e6e6}
        </style>
    </defs>
    <g id="Group_3778">
        <path id="Path_2133" d="M4.829 9.423l8.288 4a2.062 2.062 0 0 0 1.577 0l8.288-4c.436-.211.436-.554 0-.764l-8.288-4a2.062 2.062 0 0 0-1.577 0l-8.288 4c-.436.21-.436.553 0 .764z" class="cls-1" transform="translate(-4.492 -4.5)"/>
        <path id="Path_2134" d="M22.978 17.06l-1.714-.828a.405.405 0 0 0-.465 0c-.211.1-6.113 2.949-6.113 2.949a2.062 2.062 0 0 1-1.577 0s-5.746-2.772-6.015-2.9a.561.561 0 0 0-.642-.015l-1.636.789c-.436.211-.436.554 0 .764l8.288 4a2.062 2.062 0 0 0 1.577 0l8.288-4c.444-.205.444-.548.009-.759z" class="cls-1" transform="translate(-4.488 -8.037)"/>
    </g>
    <path id="Path_2135" d="M22.98 24.042l-1.714-.828a.405.405 0 0 0-.465 0c-.211.1-6.108 2.954-6.108 2.954a2.062 2.062 0 0 1-1.577 0S7.369 23.4 7.1 23.268a.561.561 0 0 0-.642-.015l-1.636.789c-.436.211-.436.554 0 .764l8.288 4a1.829 1.829 0 0 0 .789.157 1.9 1.9 0 0 0 .789-.157l8.288-4c.44-.206.44-.553.004-.764z" class="cls-1" transform="translate(-4.49 -10.156)"/>
</svg>
