<svg xmlns="http://www.w3.org/2000/svg" width="65.708" height="65.708" viewBox="0 0 65.708 65.708">
    <defs>
        <filter id="4040b3ctca" width="65.708" height="65.708" x="0" y="0" filterUnits="userSpaceOnUse">
            <feOffset/>
            <feGaussianBlur result="blur" stdDeviation="5"/>
            <feFlood flood-color="#e6e6e6" flood-opacity=".161"/>
            <feComposite in2="blur" operator="in"/>
            <feComposite in="SourceGraphic"/>
        </filter>
    </defs>
    <g>
        <g filter="url(#4040b3ctca)" transform="translate(15 15) matrix(1, 0, 0, 1, -15, -15)">
            <rect width="35.708" height="35.708" fill="#e7416a" rx="17.854" transform="translate(15 15)"/>
        </g>
        <path fill="#e6e6e6" d="M20.43 14.038a6.062 6.062 0 0 0 .049-.969c0-.339-.049-.63-.049-.969l2.082-1.6a.445.445 0 0 0 .1-.63l-1.984-3.345a.483.483 0 0 0-.595-.194l-2.478.969a7.215 7.215 0 0 0-1.685-.969l-.347-2.569a.531.531 0 0 0-.5-.388h-3.962a.531.531 0 0 0-.5.388l-.4 2.569a8.4 8.4 0 0 0-1.678.969L6 6.331a.464.464 0 0 0-.595.194L3.426 9.87a.585.585 0 0 0 .1.63l2.132 1.6c0 .339-.049.63-.049.969s.049.63.049.969l-2.082 1.6a.445.445 0 0 0-.1.63l1.983 3.344a.483.483 0 0 0 .595.194l2.479-.969a7.214 7.214 0 0 0 1.685.969l.4 2.569a.481.481 0 0 0 .5.388h3.966a.531.531 0 0 0 .5-.388l.4-2.569a8.39 8.39 0 0 0 1.685-.969l2.479.969a.464.464 0 0 0 .595-.194l1.983-3.345a.585.585 0 0 0-.1-.63zm-7.387 2.423a3.394 3.394 0 1 1 3.47-3.393 3.411 3.411 0 0 1-3.469 3.393z" transform="translate(15 15) translate(4.718 5.017)"/>
    </g>
</svg>
