<svg xmlns="http://www.w3.org/2000/svg" width="25" height="25" viewBox="0 0 25 25">
    <g stroke="#e6e6e6" stroke-linecap="round" stroke-linejoin="round" stroke-width="2px">
        <path fill="#e6e6e6" d="M15.185 13.5h7.585a1.685 1.685 0 0 1 1.685 1.685v7.585a1.685 1.685 0 0 1-1.685 1.685h-7.585A1.685 1.685 0 0 1 13.5 22.77v-7.585a1.685 1.685 0 0 1 1.685-1.685z" transform="translate(5.02 6.021) translate(-10.496 -10.496)"/>
        <path fill="none" d="M5.528 13.955h-.843A1.685 1.685 0 0 1 3 12.27V4.685A1.685 1.685 0 0 1 4.685 3h7.585a1.685 1.685 0 0 1 1.685 1.685v.843" transform="translate(5.02 6.021) translate(-3 -3)"/>
    </g>
</svg>
